<svg width="341" height="568" viewBox="0 0 341 568" fill="none" xmlns="http://www.w3.org/2000/svg">
<g filter="url(#filter0_ddd)">
<path fill-rule="evenodd" clip-rule="evenodd" d="M338 14C338 7.37257 332.627 2 326 2H15C8.37259 2 3 7.37258 3 14V146.803C4.7934 147.84 6 149.779 6 152C6 154.221 4.7934 156.16 3 157.197V552C3 558.627 8.37258 564 15 564H326C332.627 564 338 558.627 338 552V157.659C335.67 156.835 334 154.612 334 152C334 149.388 335.67 147.165 338 146.341V14ZM160 146C156.686 146 154 148.686 154 152C154 155.314 156.686 158 160 158C163.314 158 166 155.314 166 152C166 148.686 163.314 146 160 146ZM294 152C294 148.686 296.686 146 300 146C303.314 146 306 148.686 306 152C306 155.314 303.314 158 300 158C296.686 158 294 155.314 294 152ZM20 146C16.6863 146 14 148.686 14 152C14 155.314 16.6863 158 20 158C23.3137 158 26 155.314 26 152C26 148.686 23.3137 146 20 146ZM34 152C34 148.686 36.6863 146 40 146C43.3137 146 46 148.686 46 152C46 155.314 43.3137 158 40 158C36.6863 158 34 155.314 34 152ZM180 146C176.686 146 174 148.686 174 152C174 155.314 176.686 158 180 158C183.314 158 186 155.314 186 152C186 148.686 183.314 146 180 146ZM54 152C54 148.686 56.6863 146 60 146C63.3137 146 66 148.686 66 152C66 155.314 63.3137 158 60 158C56.6863 158 54 155.314 54 152ZM200 146C196.686 146 194 148.686 194 152C194 155.314 196.686 158 200 158C203.314 158 206 155.314 206 152C206 148.686 203.314 146 200 146ZM74 152C74 148.686 76.6863 146 80 146C83.3137 146 86 148.686 86 152C86 155.314 83.3137 158 80 158C76.6863 158 74 155.314 74 152ZM220 146C216.686 146 214 148.686 214 152C214 155.314 216.686 158 220 158C223.314 158 226 155.314 226 152C226 148.686 223.314 146 220 146ZM94 152C94 148.686 96.6863 146 100 146C103.314 146 106 148.686 106 152C106 155.314 103.314 158 100 158C96.6863 158 94 155.314 94 152ZM240 146C236.686 146 234 148.686 234 152C234 155.314 236.686 158 240 158C243.314 158 246 155.314 246 152C246 148.686 243.314 146 240 146ZM114 152C114 148.686 116.686 146 120 146C123.314 146 126 148.686 126 152C126 155.314 123.314 158 120 158C116.686 158 114 155.314 114 152ZM260 146C256.686 146 254 148.686 254 152C254 155.314 256.686 158 260 158C263.314 158 266 155.314 266 152C266 148.686 263.314 146 260 146ZM314 152C314 148.686 316.686 146 320 146C323.314 146 326 148.686 326 152C326 155.314 323.314 158 320 158C316.686 158 314 155.314 314 152ZM140 146C136.686 146 134 148.686 134 152C134 155.314 136.686 158 140 158C143.314 158 146 155.314 146 152C146 148.686 143.314 146 140 146ZM274 152C274 148.686 276.686 146 280 146C283.314 146 286 148.686 286 152C286 155.314 283.314 158 280 158C276.686 158 274 155.314 274 152Z" fill="white"/>
</g>
<defs>
<filter id="filter0_ddd" x="0" y="0" width="341" height="568" filterUnits="userSpaceOnUse" color-interpolation-filters="sRGB">
<feFlood flood-opacity="0" result="BackgroundImageFix"/>
<feColorMatrix in="SourceAlpha" type="matrix" values="0 0 0 0 0 0 0 0 0 0 0 0 0 0 0 0 0 0 127 0"/>
<feOffset dy="1"/>
<feGaussianBlur stdDeviation="1.5"/>
<feColorMatrix type="matrix" values="0 0 0 0 0 0 0 0 0 0 0 0 0 0 0 0 0 0 0.2 0"/>
<feBlend mode="normal" in2="BackgroundImageFix" result="effect1_dropShadow"/>
<feColorMatrix in="SourceAlpha" type="matrix" values="0 0 0 0 0 0 0 0 0 0 0 0 0 0 0 0 0 0 127 0"/>
<feOffset dy="2"/>
<feGaussianBlur stdDeviation="1"/>
<feColorMatrix type="matrix" values="0 0 0 0 0 0 0 0 0 0 0 0 0 0 0 0 0 0 0.12 0"/>
<feBlend mode="normal" in2="effect1_dropShadow" result="effect2_dropShadow"/>
<feColorMatrix in="SourceAlpha" type="matrix" values="0 0 0 0 0 0 0 0 0 0 0 0 0 0 0 0 0 0 127 0"/>
<feOffset/>
<feGaussianBlur stdDeviation="1"/>
<feColorMatrix type="matrix" values="0 0 0 0 0 0 0 0 0 0 0 0 0 0 0 0 0 0 0.14 0"/>
<feBlend mode="normal" in2="effect2_dropShadow" result="effect3_dropShadow"/>
<feBlend mode="normal" in="SourceGraphic" in2="effect3_dropShadow" result="shape"/>
</filter>
</defs>
</svg>
