<svg width="26" height="32" viewBox="0 0 26 32" fill="none" xmlns="http://www.w3.org/2000/svg">
<path d="M18.625 21.0575H7.375C6.85725 21.0575 6.4375 21.4772 6.4375 21.995V31.0625C6.4375 31.4083 6.62781 31.726 6.93262 31.8891C7.2375 32.0523 7.60731 32.0344 7.895 31.8426L13 28.4393L18.105 31.8426C18.3931 32.0347 18.7631 32.052 19.0674 31.8891C19.3722 31.726 19.5625 31.4083 19.5625 31.0625V21.995C19.5625 21.4772 19.1427 21.0575 18.625 21.0575Z" fill="url(#paint0_linear)"/>
<path d="M13 24.4375C6.27981 24.4375 0.8125 18.9702 0.8125 12.25C0.8125 5.49531 6.27981 0 13 0C19.7202 0 25.1875 5.49531 25.1875 12.25C25.1875 18.9702 19.7202 24.4375 13 24.4375Z" fill="url(#paint1_linear)"/>
<path d="M15.8698 17.6305L12.9998 16.1217L10.1298 17.6306C9.81376 17.7967 9.4312 17.7689 9.14251 17.5592C8.85383 17.3494 8.7092 16.994 8.76951 16.6423L9.31764 13.4464L6.99576 11.1831C6.74026 10.9341 6.64826 10.5615 6.75858 10.2221C6.86889 9.88275 7.1622 9.63538 7.51533 9.58406L10.7241 9.11781L12.1591 6.21012C12.3171 5.89012 12.643 5.6875 12.9998 5.6875C13.3567 5.6875 13.6826 5.89013 13.8405 6.21006L15.2755 9.11775L18.4843 9.584C18.8375 9.63531 19.1308 9.88269 19.2411 10.2221C19.3513 10.5614 19.2594 10.934 19.0039 11.1831L16.682 13.4464L17.2301 16.6422C17.2905 16.9939 17.1458 17.3494 16.8571 17.5591C16.5712 17.767 16.1885 17.7981 15.8698 17.6305Z" fill="url(#paint2_linear)"/>
<defs>
<linearGradient id="paint0_linear" x1="13" y1="32" x2="13" y2="21.0575" gradientUnits="userSpaceOnUse">
<stop stop-color="#FD5900"/>
<stop offset="1" stop-color="#FFDE00"/>
</linearGradient>
<linearGradient id="paint1_linear" x1="13" y1="24.4375" x2="13" y2="0" gradientUnits="userSpaceOnUse">
<stop stop-color="#FFE59A"/>
<stop offset="1" stop-color="#FFFFD5"/>
</linearGradient>
<linearGradient id="paint2_linear" x1="12.9998" y1="17.7382" x2="12.9998" y2="5.6875" gradientUnits="userSpaceOnUse">
<stop stop-color="#FD5900"/>
<stop offset="1" stop-color="#FFDE00"/>
</linearGradient>
</defs>
</svg>
