<svg width="44" height="56" viewBox="0 0 44 56" fill="none" xmlns="http://www.w3.org/2000/svg">
<g clip-path="url(#clip0)">
<path d="M10.8043 40.0836C10.763 40.1533 10.7148 40.2091 10.6667 40.2439C10.6185 40.2788 10.5566 40.2997 10.4809 40.2997C10.412 40.2997 10.3432 40.2788 10.2606 40.237C10.1849 40.1951 10.0955 40.1464 9.99913 40.0906C9.90278 40.0349 9.78579 39.9861 9.66192 39.9443C9.53805 39.9025 9.39353 39.8816 9.22837 39.8816C8.94622 39.8816 8.73976 39.9443 8.60213 40.0627C8.46449 40.1812 8.39567 40.3485 8.39567 40.5505C8.39567 40.683 8.43697 40.7875 8.51955 40.8781C8.60213 40.9617 8.71224 41.0383 8.84299 41.1011C8.97374 41.1638 9.13202 41.2195 9.30407 41.2753C9.47611 41.331 9.64816 41.3868 9.82708 41.4495C10.006 41.5122 10.1849 41.5889 10.3501 41.6725C10.5221 41.7561 10.6735 41.8676 10.8112 42C10.9419 42.1324 11.052 42.2997 11.1346 42.4878C11.2172 42.683 11.2585 42.9129 11.2585 43.1847C11.2585 43.4843 11.2103 43.7631 11.1071 44.0279C11.0039 44.2927 10.8525 44.5157 10.6598 44.7108C10.4671 44.9059 10.2262 45.0593 9.93719 45.1708C9.64816 45.2823 9.32471 45.338 8.95998 45.338C8.76041 45.338 8.55396 45.3171 8.3475 45.2753C8.14105 45.2335 7.94148 45.1777 7.74879 45.1011C7.5561 45.0244 7.37029 44.9338 7.20513 44.8293C7.03308 44.7248 6.88857 44.6063 6.75781 44.4809L7.19825 43.777C7.23265 43.7282 7.28083 43.6864 7.33588 43.6516C7.39094 43.6168 7.45287 43.6028 7.52169 43.6028C7.61115 43.6028 7.70062 43.6307 7.79008 43.6864C7.87954 43.7422 7.98277 43.8049 8.09288 43.8746C8.20298 43.9443 8.33374 44.007 8.48514 44.0627C8.62965 44.1185 8.8017 44.1464 9.00815 44.1464C9.27654 44.1464 9.48988 44.0836 9.64128 43.9652C9.79267 43.8467 9.86837 43.6516 9.86837 43.3938C9.86837 43.2404 9.82708 43.122 9.7445 43.0244C9.66192 42.9269 9.55181 42.8502 9.42106 42.7875C9.2903 42.7248 9.13891 42.669 8.96686 42.6202C8.79482 42.5715 8.62277 42.5227 8.44385 42.46C8.26492 42.4042 8.09288 42.3276 7.92083 42.2439C7.74879 42.1603 7.59739 42.0488 7.46664 41.9094C7.33588 41.7701 7.22577 41.5958 7.14319 41.3938C7.06061 41.1847 7.01932 40.9338 7.01932 40.6272C7.01932 40.3833 7.06749 40.1464 7.16384 39.9164C7.26018 39.6864 7.4047 39.4774 7.59051 39.2962C7.77632 39.115 8.0103 38.9687 8.27868 38.8641C8.55396 38.7526 8.86363 38.7039 9.2146 38.7039C9.41418 38.7039 9.59998 38.7178 9.79267 38.7526C9.97848 38.7805 10.1574 38.8293 10.3226 38.892C10.4877 38.9547 10.646 39.0244 10.7905 39.108C10.935 39.1917 11.0658 39.2892 11.1828 39.3938L10.8043 40.0836Z" fill="#FF9100"/>
<path d="M14.0801 40.5645C14.4242 40.5645 14.7408 40.6202 15.0298 40.7317C15.312 40.8432 15.5597 40.9965 15.7662 41.2056C15.9726 41.4077 16.1309 41.6585 16.241 41.9512C16.3511 42.2439 16.4131 42.5714 16.4131 42.9408C16.4131 43.3101 16.358 43.6446 16.241 43.9373C16.1309 44.23 15.9726 44.4878 15.7662 44.6899C15.5597 44.8989 15.3189 45.0523 15.0298 45.1638C14.7477 45.2753 14.4311 45.331 14.0801 45.331C13.7292 45.331 13.4126 45.2753 13.1236 45.1638C12.8345 45.0523 12.5937 44.892 12.3803 44.6899C12.1739 44.4808 12.0156 44.23 11.8986 43.9373C11.7885 43.6446 11.7266 43.3101 11.7266 42.9408C11.7266 42.5784 11.7816 42.2439 11.8986 41.9512C12.0087 41.6585 12.1739 41.4077 12.3803 41.2056C12.5868 41.0035 12.8345 40.8432 13.1236 40.7317C13.4126 40.6202 13.7361 40.5645 14.0801 40.5645ZM14.0801 44.3066C14.3967 44.3066 14.6238 44.1951 14.7752 43.9721C14.9266 43.7491 14.9954 43.4077 14.9954 42.9477C14.9954 42.4878 14.9197 42.1463 14.7752 41.9233C14.6238 41.7003 14.3967 41.5888 14.0801 41.5888C13.7567 41.5888 13.5227 41.7003 13.3713 41.9233C13.2199 42.1463 13.1442 42.4878 13.1442 42.9477C13.1442 43.4077 13.2199 43.7491 13.3713 43.9721C13.5227 44.1951 13.7567 44.3066 14.0801 44.3066Z" fill="#FF9100"/>
<path d="M21.6639 41.5958V43.8955C21.6639 44 21.6914 44.0906 21.7396 44.1603C21.7878 44.23 21.8635 44.2648 21.9598 44.2648C22.008 44.2648 22.0493 44.2578 22.0837 44.2509C22.1181 44.2439 22.1456 44.23 22.1732 44.216C22.2007 44.2021 22.2213 44.1882 22.242 44.1812C22.2626 44.1742 22.2902 44.1672 22.3177 44.1672C22.359 44.1672 22.3934 44.1742 22.414 44.1951C22.4416 44.216 22.4622 44.2439 22.4897 44.2857L22.9026 44.9408C22.7237 45.0732 22.531 45.1777 22.3108 45.2404C22.0906 45.3031 21.8635 45.338 21.6295 45.338C21.4093 45.338 21.2235 45.3031 21.0514 45.2404C20.8863 45.1777 20.7486 45.0871 20.6317 44.9686C20.5215 44.8502 20.4321 44.7108 20.377 44.5436C20.3151 44.3763 20.2876 44.1882 20.2876 43.9861V41.5958H18.6704V45.2683H17.3078V41.5958L17.005 41.5331C16.9017 41.5122 16.8192 41.4704 16.7572 41.4216C16.6953 41.3728 16.6609 41.2962 16.6609 41.1986V40.6551H17.3009V40.3902C17.3009 40.1254 17.3422 39.8885 17.4248 39.6725C17.5073 39.4564 17.6312 39.2753 17.7826 39.122C17.9409 38.9686 18.1336 38.8502 18.3607 38.7665C18.5878 38.6829 18.8424 38.6411 19.1314 38.6411C19.2415 38.6411 19.3448 38.6481 19.4411 38.662C19.5375 38.676 19.6338 38.6969 19.737 38.7247L19.7095 39.4007C19.7095 39.4495 19.6957 39.4843 19.6751 39.5192C19.6544 39.547 19.6269 39.5749 19.5925 39.5958C19.5581 39.6167 19.5237 39.6307 19.4824 39.6376C19.4411 39.6446 19.4067 39.6516 19.3654 39.6516C19.2415 39.6516 19.1383 39.6655 19.042 39.6864C18.9456 39.7073 18.8699 39.7561 18.808 39.8118C18.7461 39.8746 18.6979 39.9512 18.6635 40.0557C18.6291 40.1533 18.6153 40.2787 18.6153 40.4321V40.6481H20.3633L20.6385 39.5122C20.6729 39.3728 20.7762 39.2962 20.9413 39.2962H21.657V40.6481H22.7856V41.5958H21.6639Z" fill="#FF9100"/>
<path d="M26.1576 44.0696C26.3572 44.0696 26.5361 44.0348 26.6944 43.9721C26.8526 43.9093 26.9834 43.8118 27.0935 43.6863C27.2036 43.5609 27.2862 43.4076 27.3412 43.2264C27.3963 43.0452 27.4238 42.8431 27.4238 42.6132V38.7665H28.9103V42.6132C28.9103 43.0104 28.8484 43.3797 28.7176 43.7072C28.5869 44.0417 28.4079 44.3275 28.1671 44.5714C27.9262 44.8153 27.6372 44.9964 27.3 45.1358C26.9559 45.2682 26.5774 45.3379 26.1507 45.3379C25.724 45.3379 25.3387 45.2682 24.9946 45.1358C24.6505 45.0034 24.3614 44.8153 24.1275 44.5714C23.8935 44.3275 23.7077 44.0417 23.5838 43.7072C23.4599 43.3728 23.3911 43.0104 23.3911 42.6132V38.7665H24.8776V42.6132C24.8776 42.8431 24.9051 43.0452 24.9602 43.2264C25.0152 43.4076 25.0978 43.5609 25.2079 43.6863C25.318 43.8118 25.4488 43.9093 25.607 43.979C25.7791 44.0417 25.958 44.0696 26.1576 44.0696Z" fill="#FF9100"/>
<path d="M31.0231 41.1359C31.1126 41.0523 31.2021 40.9756 31.2984 40.9059C31.3948 40.8362 31.4911 40.7735 31.6012 40.7247C31.7113 40.676 31.8214 40.6341 31.9522 40.6063C32.0761 40.5784 32.2137 40.5645 32.3582 40.5645C32.606 40.5645 32.8262 40.6063 33.0189 40.6969C33.2115 40.7875 33.3767 40.9059 33.5075 41.0592C33.6382 41.2125 33.7414 41.4007 33.8103 41.6167C33.8791 41.8327 33.9135 42.0697 33.9135 42.3206V45.2613H32.5509V42.3206C32.5509 42.0976 32.5027 41.9164 32.3995 41.7909C32.2963 41.6655 32.1449 41.6028 31.9453 41.6028C31.7939 41.6028 31.6563 41.6376 31.5255 41.7003C31.3948 41.7631 31.2709 41.8537 31.147 41.9582V45.2613H29.7844V40.6341H30.6309C30.8029 40.6341 30.913 40.7108 30.9681 40.8641L31.0231 41.1359Z" fill="#FF9100"/>
<path d="M36.322 39.3728C36.322 39.4843 36.3014 39.5888 36.2532 39.6794C36.2119 39.777 36.15 39.8606 36.0743 39.9303C35.9986 40 35.9091 40.0627 35.8059 40.1045C35.7027 40.1463 35.5994 40.1672 35.4824 40.1672C35.3723 40.1672 35.2691 40.1463 35.1727 40.1045C35.0764 40.0627 34.9869 40 34.9181 39.9303C34.8424 39.8606 34.7874 39.77 34.7392 39.6794C34.691 39.5888 34.6772 39.4773 34.6772 39.3728C34.6772 39.2613 34.6979 39.1568 34.7392 39.0592C34.7805 38.9617 34.8424 38.878 34.9181 38.8014C34.9938 38.7247 35.0764 38.669 35.1727 38.6272C35.2691 38.5854 35.3723 38.5645 35.4824 38.5645C35.5994 38.5645 35.7027 38.5854 35.8059 38.6272C35.9091 38.669 35.9986 38.7247 36.0743 38.8014C36.15 38.878 36.2119 38.9617 36.2532 39.0592C36.3014 39.1568 36.322 39.2613 36.322 39.3728ZM36.1844 40.6411V45.2683H34.8218V40.6411H36.1844Z" fill="#FF9100"/>
<path d="M14.9884 49.4634H15.2293C15.4495 49.4634 15.6078 49.3937 15.7041 49.2543L17.1493 47.1289C17.2319 47.0174 17.3282 46.9407 17.4246 46.8919C17.5209 46.8501 17.6448 46.8292 17.7893 46.8292H19.0831L17.1837 49.4564C17.0461 49.6376 16.9015 49.77 16.7502 49.8466C16.8603 49.8885 16.9635 49.9442 17.0529 50.0209C17.1424 50.0975 17.2319 50.1951 17.3076 50.3135L19.2482 53.331H17.9132C17.8306 53.331 17.7549 53.324 17.693 53.3101C17.631 53.2961 17.5828 53.2822 17.5347 53.2543C17.4934 53.2334 17.4521 53.1986 17.4177 53.1707C17.3833 53.1358 17.3557 53.094 17.3282 53.0522L15.8762 50.7944C15.8211 50.7108 15.7592 50.655 15.6766 50.6202C15.594 50.5853 15.4839 50.5714 15.3463 50.5714H14.9884V53.3379H13.502V46.8432H14.9884V49.4634Z" fill="#FF9100"/>
<path d="M21.0996 47.4425C21.0996 47.554 21.0789 47.6585 21.0308 47.7491C20.9895 47.8467 20.9275 47.9303 20.8518 48C20.7761 48.0697 20.6867 48.1324 20.5834 48.1742C20.4802 48.216 20.377 48.2369 20.26 48.2369C20.1499 48.2369 20.0467 48.216 19.9503 48.1742C19.854 48.1324 19.7645 48.0697 19.6957 48C19.62 47.9303 19.5649 47.8397 19.5168 47.7491C19.4755 47.6516 19.4548 47.547 19.4548 47.4425C19.4548 47.331 19.4755 47.2265 19.5168 47.1289C19.5581 47.0314 19.62 46.9477 19.6957 46.8711C19.7714 46.7944 19.854 46.7387 19.9503 46.6969C20.0467 46.6551 20.1499 46.6342 20.26 46.6342C20.377 46.6342 20.4802 46.6551 20.5834 46.6969C20.6867 46.7387 20.7761 46.7944 20.8518 46.8711C20.9275 46.9477 20.9895 47.0314 21.0308 47.1289C21.0789 47.2195 21.0996 47.324 21.0996 47.4425ZM20.9551 48.7038V53.331H19.5925V48.7038H20.9551Z" fill="#FF9100"/>
<path d="M26.0474 46.655V53.331H25.2009C25.0289 53.331 24.9187 53.2543 24.8637 53.101L24.7605 52.7456C24.671 52.8432 24.5747 52.9338 24.4714 53.0104C24.3682 53.0871 24.265 53.1568 24.148 53.2195C24.031 53.2752 23.9071 53.324 23.7764 53.3519C23.6456 53.3798 23.5011 53.4007 23.3428 53.4007C23.1019 53.4007 22.8817 53.3449 22.6821 53.2404C22.4826 53.1359 22.3036 52.9756 22.1591 52.7735C22.0146 52.5714 21.8976 52.3205 21.815 52.0279C21.7325 51.7352 21.6912 51.4007 21.6912 51.0244C21.6912 50.6829 21.7393 50.3624 21.8288 50.0627C21.9251 49.77 22.0559 49.5122 22.2279 49.2962C22.4 49.0801 22.6064 48.9129 22.8473 48.7874C23.0882 48.669 23.3566 48.6063 23.6456 48.6063C23.8865 48.6063 24.086 48.6411 24.2443 48.7108C24.4026 48.7805 24.554 48.8711 24.6848 48.9895V46.6481L26.0474 46.655ZM24.6848 49.9442C24.5815 49.8258 24.4714 49.7491 24.3476 49.7003C24.2237 49.6516 24.0998 49.6306 23.969 49.6306C23.8452 49.6306 23.7282 49.6585 23.6181 49.7073C23.5148 49.7561 23.4185 49.8397 23.3428 49.9512C23.2671 50.0627 23.2052 50.209 23.157 50.3833C23.1157 50.5644 23.0882 50.7805 23.0882 51.0313C23.0882 51.2752 23.1088 51.4773 23.1432 51.6446C23.1776 51.8118 23.2258 51.9442 23.2877 52.0488C23.3497 52.1533 23.4254 52.223 23.5148 52.2718C23.6043 52.3136 23.7007 52.3414 23.8108 52.3414C23.9071 52.3414 24.0035 52.3345 24.0792 52.3136C24.1617 52.2927 24.2374 52.2648 24.2994 52.2299C24.3682 52.1951 24.4301 52.1463 24.4921 52.0906C24.554 52.0348 24.6091 51.9721 24.671 51.9024V49.9442H24.6848Z" fill="#FF9100"/>
<path d="M29.8736 49.7212C29.8392 49.777 29.7979 49.8188 29.7635 49.8397C29.7222 49.8606 29.6741 49.8745 29.6121 49.8745C29.5502 49.8745 29.4814 49.8606 29.4194 49.8327C29.3575 49.8048 29.2818 49.777 29.213 49.7421C29.1442 49.7073 29.0547 49.6794 28.9583 49.6515C28.862 49.6236 28.7588 49.6097 28.6349 49.6097C28.4629 49.6097 28.3321 49.6446 28.2357 49.7073C28.1463 49.777 28.0981 49.8675 28.0981 49.986C28.0981 50.0696 28.1256 50.1463 28.1876 50.202C28.2495 50.2578 28.3252 50.3066 28.4284 50.3484C28.5317 50.3902 28.6418 50.432 28.7657 50.4738C28.8895 50.5156 29.0203 50.5574 29.151 50.6062C29.2818 50.655 29.4125 50.7108 29.5364 50.7735C29.6603 50.8362 29.7773 50.9128 29.8736 51.0104C29.9769 51.101 30.0526 51.2195 30.1145 51.3519C30.1764 51.4843 30.204 51.6446 30.204 51.8327C30.204 52.0627 30.1627 52.2717 30.0801 52.4669C29.9975 52.662 29.8736 52.8292 29.7153 52.9686C29.5571 53.108 29.3506 53.2195 29.1097 53.2961C28.8689 53.3728 28.5936 53.4146 28.2839 53.4146C28.1256 53.4146 27.9742 53.4007 27.816 53.3728C27.6577 53.3449 27.5132 53.3031 27.3618 53.2543C27.2172 53.2055 27.0796 53.1428 26.9557 53.0731C26.8319 53.0034 26.7286 52.9268 26.6392 52.8501L26.9557 52.3414C26.9901 52.2787 27.0383 52.2369 27.0934 52.202C27.1484 52.1672 27.2172 52.1533 27.2998 52.1533C27.3824 52.1533 27.4512 52.1742 27.5132 52.209C27.5751 52.2439 27.6439 52.2857 27.7196 52.3275C27.7953 52.3693 27.8779 52.4111 27.9742 52.4459C28.0706 52.4808 28.1945 52.5017 28.3459 52.5017C28.4491 52.5017 28.5386 52.4878 28.6143 52.4669C28.69 52.4459 28.745 52.4111 28.7932 52.3763C28.8345 52.3344 28.8689 52.2926 28.8895 52.2439C28.9102 52.1951 28.9171 52.1463 28.9171 52.0975C28.9171 52.0069 28.8895 51.9303 28.8276 51.8675C28.7657 51.8048 28.6831 51.7561 28.5867 51.7142C28.4835 51.6724 28.3734 51.6306 28.2426 51.5958C28.1119 51.5609 27.988 51.5191 27.8504 51.4703C27.7127 51.4216 27.5889 51.3658 27.4581 51.2961C27.3273 51.2264 27.2172 51.1428 27.114 51.0453C27.0108 50.9477 26.9351 50.8153 26.8731 50.6689C26.8112 50.5226 26.7837 50.3414 26.7837 50.1324C26.7837 49.9372 26.8181 49.7491 26.8938 49.5749C26.9695 49.4007 27.0796 49.2404 27.231 49.108C27.3824 48.9756 27.5682 48.871 27.7953 48.7874C28.0224 48.7108 28.2839 48.6689 28.5867 48.6689C28.7519 48.6689 28.9102 48.6829 29.0616 48.7108C29.213 48.7386 29.3575 48.7804 29.4951 48.8362C29.6328 48.8919 29.7566 48.9547 29.8668 49.0243C29.9769 49.094 30.0801 49.1777 30.1627 49.2613L29.8736 49.7212Z" fill="#FF9100"/>
<path d="M15.6147 6.78748C15.9175 6.98957 15.9175 7.31013 15.6078 7.50525L15.601 7.51222C15.1949 7.77703 14.665 7.93731 14.0732 7.98609C13.6878 8.01396 13.3093 8.13243 12.979 8.34149C12.6074 8.57842 12.4078 8.89898 12.4147 9.23347C12.4216 9.56797 12.6349 9.88156 13.0134 10.1185C13.736 10.5575 14.9059 10.5575 15.6285 10.1185C15.9519 9.9164 16.1584 9.66553 16.2134 9.37981C16.2891 9.00351 16.5438 8.66205 16.9429 8.40421L16.9635 8.39027C17.2732 8.18818 17.7687 8.18818 18.0715 8.39027L21.5743 10.676L24.3133 8.90595C23.5907 8.82232 22.9232 8.58539 22.4139 8.23696C21.1545 7.37285 21.1614 6.01396 22.4208 5.14289C23.0746 4.68992 23.9554 4.43905 24.9051 4.42512C25.8548 4.41118 26.7494 4.64811 27.417 5.08714C27.9262 5.41466 28.2496 5.82581 28.3735 6.28574L31.2226 4.62721L23.5288 0.4739C22.352 -0.160245 20.9481 -0.160245 19.7713 0.4739L12.0637 4.62024L15.6147 6.78748Z" fill="#41BEAD"/>
<path d="M23.5083 22.5156L31.2434 18.5156L27.5548 16.0557C27.252 15.8606 27.252 15.5331 27.5616 15.3379L27.5754 15.331C27.9814 15.0662 28.5044 14.9059 29.0963 14.8571C29.5092 14.8223 29.8877 14.7038 30.1905 14.5087C30.5621 14.2717 30.7617 13.9512 30.7548 13.6167C30.7479 13.2822 30.5346 12.9686 30.1561 12.7386C29.4404 12.2996 28.2705 12.2996 27.5479 12.7386C27.2244 12.9407 27.0249 13.1916 26.9629 13.4773C26.8872 13.8536 26.6326 14.1881 26.2403 14.4459L26.2197 14.4599C25.91 14.655 25.4145 14.655 25.1117 14.4599L21.6227 12.1881L18.8906 13.9512C19.6132 14.0348 20.2807 14.2717 20.79 14.6202C22.0425 15.4843 22.0425 16.8362 20.7831 17.7003C20.1293 18.1463 19.2553 18.4041 18.3057 18.4111C17.356 18.4181 16.4682 18.1881 15.8007 17.756C15.2983 17.4285 14.968 17.0174 14.8441 16.5644L11.8918 18.4668L19.8953 22.5156C21.0308 23.101 22.3728 23.101 23.5083 22.5156Z" fill="#41BEAD"/>
<path d="M42.5776 10.8223L37.7535 8.22297C37.6984 8.18813 37.6365 8.15329 37.5814 8.12541L32.4683 5.3728L28.7246 7.5958C28.4149 7.79092 27.9194 7.79092 27.6166 7.5958L27.6029 7.58883C27.2037 7.32402 26.9491 6.98953 26.8734 6.60625C26.8184 6.33447 26.6325 6.09057 26.3366 5.89545C25.9719 5.65852 25.4833 5.52611 24.9672 5.53308C24.451 5.54005 23.9624 5.67942 23.6115 5.92332C22.9302 6.39022 22.9302 7.1498 23.6046 7.60973C23.9074 7.81879 24.2996 7.9512 24.7401 7.98604C25.325 8.03482 25.8411 8.1951 26.2334 8.45294L26.2541 8.46688C26.5569 8.662 26.5568 8.98952 26.2472 9.18464L22.7306 11.4634L25.442 13.2265C25.5728 12.7596 25.9375 12.3205 26.4811 11.993C27.8162 11.1777 29.9014 11.1707 31.2296 11.986C31.9177 12.4042 32.3031 12.9756 32.3169 13.5888C32.3307 14.2021 31.9659 14.7805 31.2915 15.2125C30.7823 15.54 30.1491 15.7561 29.4541 15.8397L32.4339 17.8815L31.2433 18.5156V24.7386L21.719 29.5261L21.7052 29.5191L21.6914 29.5261L12.1671 24.7386L11.8918 18.4669L10.6118 17.8327L14.5344 15.331C14.8441 15.1359 15.3396 15.1359 15.6424 15.331L15.6561 15.3379C16.0553 15.6028 16.3099 15.9372 16.3856 16.3205C16.4406 16.5853 16.6264 16.8362 16.9224 17.0313C17.2871 17.2683 17.7757 17.4007 18.2918 17.3937C18.808 17.3867 19.2897 17.2474 19.6476 17.0034C20.3288 16.5366 20.3288 15.777 19.6544 15.317C19.3516 15.108 18.9594 14.9756 18.5189 14.9407C17.9409 14.892 17.4247 14.7317 17.0256 14.4738L17.0049 14.4599C16.7022 14.2648 16.7022 13.9373 17.0118 13.7421L20.5284 11.4704L17.817 9.70729C17.6862 10.1742 17.3215 10.6062 16.7847 10.9407C15.4497 11.7561 13.3645 11.763 12.0294 10.9477C12.0019 10.9268 11.9744 10.9129 11.9468 10.892C11.3137 10.4808 10.9559 9.93029 10.9421 9.34492C10.9283 8.73168 11.2931 8.15329 11.9675 7.72123C12.4767 7.39371 13.1099 7.17768 13.8049 7.09406L10.8939 5.41461L0.832782 10.8362C0.0964326 11.2334 0.110196 12.2996 0.846546 12.6829L7.92101 16.3414V27.4285L21.7121 34.3623L35.5032 27.4285V16.3275L37.5264 15.2822C37.5814 15.2543 37.6296 15.2264 37.6778 15.1986L42.5639 12.6759C43.3002 12.2857 43.314 11.2195 42.5776 10.8223Z" fill="#41BEAD"/>
</g>
<defs>
<clipPath id="clip0">
<rect width="43.3208" height="56" fill="white"/>
</clipPath>
</defs>
</svg>
